# xmcd
# Track frame offsets:
# 150
# 14851
# 31057
# 48683
# 64957
# 80767
# 95092
# 110393
# 130268
# 151043
# 168326
# 186475
# 205902
# 223820
# 242865
#
# Disc length: 3638 seconds
# Revision: 0
# Processed by: cddbd v1.5.1PL0 Copyright (c) Steve Scherf et al.
# Submitted via: VisiTrax 2.9.10.228 - For more info visit www.synapsa.com
#
DISCID=df0e340f
DTITLE=Various Artist - CB60321
DYEAR=1900
DGENRE=Karaoke
TTITLE0=Emerick, Scotty - Where's My Beer
TTITLE1=Twain, Shania - It Only Hurts When I'm Breathing
TTITLE2=Triggs, Trini - Heaven On Earth
TTITLE3=SheDaisy - Passenger Seat
TTITLE4=Bates, Jeff - I Wanna Make You Cry
TTITLE5=Bradley, Amy - Men Don't Change
TTITLE6=Murphy, David Lee - Loco
TTITLE7=Parton, Dolly - Welcome Home
TTITLE8=Montgomery, John - Letters From Home
TTITLE9=Wilson, Gretchen - Redneck Woman
TTITLE10=Prather, Colt - I Won't Go On And On
TTITLE11=Austin, Sherrie - Drivin' Into The Sun
TTITLE12=Berry, John - Will You Marry Me
TTITLE13=Roberts, Julie - Break Down Here
TTITLE14=Griggs, Andy - She Thinks She Needs Me
EXTD=
EXTT0=
EXTT1=
EXTT2=
EXTT3=
EXTT4=
EXTT5=
EXTT6=
EXTT7=
EXTT8=
EXTT9=
EXTT10=
EXTT11=
EXTT12=
EXTT13=
EXTT14=
PLAYORDER=
